<svg xmlns="http://www.w3.org/2000/svg" viewBox="0 0 24 24">
  <defs>
    <linearGradient id="ig" x1="0%" y1="0%" x2="100%" y2="100%">
      <stop offset="0%" stop-color="#F58529"/>
      <stop offset="50%" stop-color="#DD2A7B"/>
      <stop offset="100%" stop-color="#515BD4"/>
    </linearGradient>
  </defs>
  <path fill="url(#ig)" d="M7 2h10a5 5 0 0 1 5 5v10a5 5 0 0 1-5 5H7a5 5 0 0 1-5-5V7a5 5 0 0 1 5-5z"/>
  <path fill="#fff" d="M12 7.2A4.8 4.8 0 1 1 7.2 12 4.81 4.81 0 0 1 12 7.2zm0 2A2.8 2.8 0 1 0 14.8 12 2.81 2.81 0 0 0 12 9.2z"/>
  <circle cx="17.6" cy="6.4" r="1" fill="#fff"/>
</svg>
