<svg xmlns="http://www.w3.org/2000/svg" viewBox="0 0 24 24">
  <circle cx="12" cy="12" r="12" fill="#25D366"/>
  <!-- chat bubble -->
  <path d="M6.5 7.5h11a2 2 0 0 1 2 2v5.2a2 2 0 0 1-2 2H12l-3.6 2v-2H6.5a2 2 0 0 1-2-2V9.5a2 2 0 0 1 2-2z" fill="#ffffff" opacity="0.18"/>
  <!-- phone handset -->
  <path fill="#fff" d="M9.2 9.3c.2-.2.5-.2.7 0l1.3 1.3c.2.2.2.5 0 .7l-.7.7c.6 1.1 1.5 2 2.6 2.6l.7-.7c.2-.2.5-.2.7 0l1.3 1.3c.2.2.2.5 0 .7l-.6.6c-.5.5-1.3.7-2 .5-3-.9-5.4-3.3-6.3-6.3-.2-.7 0-1.5.5-2l.6-.6z"/>
</svg>
